<svg xmlns="http://www.w3.org/2000/svg" xmlns:xlink="http://www.w3.org/1999/xlink" width="208" zoomAndPan="magnify" viewBox="0 0 156 58.499998" height="78" preserveAspectRatio="xMidYMid meet" version="1.0"><defs><clipPath id="e5e8ad3b33"><path d="M 0.660156 0.0703125 L 155.339844 0.0703125 L 155.339844 58 L 0.660156 58 Z M 0.660156 0.0703125 " clip-rule="nonzero"/></clipPath><clipPath id="b2ca4abbef"><path d="M 41 0.0703125 L 42 0.0703125 L 42 3 L 41 3 Z M 41 0.0703125 " clip-rule="nonzero"/></clipPath></defs><g clip-path="url(#e5e8ad3b33)"><path fill="#ffffff" d="M 154.070312 11.28125 L 154.070312 9.734375 C 154.070312 9.710938 154.074219 9.6875 154.078125 9.667969 C 149.285156 9.09375 145.566406 5.019531 145.566406 0.0703125 L 10.433594 0.0703125 C 10.433594 5.019531 6.714844 9.09375 1.921875 9.667969 C 1.921875 9.6875 1.929688 9.710938 1.929688 9.734375 L 1.929688 11.28125 C 1.929688 11.921875 1.410156 12.4375 0.769531 12.4375 L 0.769531 14.753906 C 1.410156 14.753906 1.929688 15.273438 1.929688 15.914062 L 1.929688 17.457031 C 1.929688 18.101562 1.410156 18.617188 0.769531 18.617188 L 0.769531 20.933594 C 1.410156 20.933594 1.929688 21.453125 1.929688 22.09375 L 1.929688 23.636719 C 1.929688 24.277344 1.410156 24.796875 0.769531 24.796875 L 0.769531 27.113281 C 1.410156 27.113281 1.929688 27.628906 1.929688 28.269531 L 1.929688 29.816406 C 1.929688 30.457031 1.410156 30.972656 0.769531 30.972656 L 0.769531 33.292969 C 1.410156 33.292969 1.929688 33.808594 1.929688 34.449219 L 1.929688 35.992188 C 1.929688 36.636719 1.410156 37.152344 0.769531 37.152344 L 0.769531 39.46875 C 1.410156 39.46875 1.929688 39.988281 1.929688 40.628906 L 1.929688 42.171875 C 1.929688 42.8125 1.410156 43.332031 0.769531 43.332031 L 0.769531 45.648438 C 1.410156 45.648438 1.929688 46.164062 1.929688 46.804688 L 1.929688 48.328125 C 1.929688 48.351562 1.925781 48.375 1.921875 48.398438 C 6.714844 48.96875 10.433594 53.042969 10.433594 57.992188 L 41.164062 57.992188 L 41.164062 55.675781 L 41.9375 55.675781 L 41.9375 57.992188 L 145.566406 57.992188 C 145.566406 53.042969 149.285156 48.96875 154.078125 48.398438 C 154.078125 48.375 154.070312 48.351562 154.070312 48.328125 L 154.070312 46.804688 C 154.070312 46.164062 154.589844 45.648438 155.230469 45.648438 L 155.230469 43.332031 C 154.589844 43.332031 154.070312 42.8125 154.070312 42.171875 L 154.070312 40.628906 C 154.070312 39.988281 154.589844 39.46875 155.230469 39.46875 L 155.230469 37.152344 C 154.589844 37.152344 154.070312 36.636719 154.070312 35.992188 L 154.070312 34.449219 C 154.070312 33.808594 154.589844 33.292969 155.230469 33.292969 L 155.230469 30.972656 C 154.589844 30.972656 154.070312 30.457031 154.070312 29.816406 L 154.070312 28.269531 C 154.070312 27.628906 154.589844 27.113281 155.230469 27.113281 L 155.230469 24.796875 C 154.589844 24.796875 154.070312 24.277344 154.070312 23.636719 L 154.070312 22.09375 C 154.070312 21.453125 154.589844 20.933594 155.230469 20.933594 L 155.230469 18.617188 C 154.589844 18.617188 154.070312 18.101562 154.070312 17.457031 L 154.070312 15.914062 C 154.070312 15.273438 154.589844 14.753906 155.230469 14.753906 L 155.230469 12.4375 C 154.589844 12.4375 154.070312 11.921875 154.070312 11.28125 Z M 41.9375 53.359375 L 41.164062 53.359375 L 41.164062 51.042969 L 41.9375 51.042969 Z M 41.9375 48.726562 L 41.164062 48.726562 L 41.164062 46.410156 L 41.9375 46.410156 Z M 41.9375 44.089844 L 41.164062 44.089844 L 41.164062 41.773438 L 41.9375 41.773438 Z M 41.9375 39.457031 L 41.164062 39.457031 L 41.164062 37.140625 L 41.9375 37.140625 Z M 41.9375 34.824219 L 41.164062 34.824219 L 41.164062 32.507812 L 41.9375 32.507812 Z M 41.9375 30.191406 L 41.164062 30.191406 L 41.164062 27.875 L 41.9375 27.875 Z M 41.9375 25.554688 L 41.164062 25.554688 L 41.164062 23.238281 L 41.9375 23.238281 Z M 41.9375 20.921875 L 41.164062 20.921875 L 41.164062 18.605469 L 41.9375 18.605469 Z M 41.9375 16.289062 L 41.164062 16.289062 L 41.164062 13.972656 L 41.9375 13.972656 Z M 41.9375 11.65625 L 41.164062 11.65625 L 41.164062 9.339844 L 41.9375 9.339844 Z M 41.9375 7.019531 L 41.164062 7.019531 L 41.164062 4.703125 L 41.9375 4.703125 Z M 41.9375 2.386719 L 41.164062 2.386719 L 41.164062 0.0703125 L 41.9375 0.0703125 Z M 41.9375 2.386719 " fill-opacity="1" fill-rule="nonzero"/></g><path fill="#000000" d="M 41.164062 32.507812 L 41.9375 32.507812 L 41.9375 34.824219 L 41.164062 34.824219 Z M 41.164062 32.507812 " fill-opacity="1" fill-rule="nonzero"/><path fill="#000000" d="M 41.164062 46.410156 L 41.9375 46.410156 L 41.9375 48.726562 L 41.164062 48.726562 Z M 41.164062 46.410156 " fill-opacity="1" fill-rule="nonzero"/><path fill="#000000" d="M 41.164062 37.140625 L 41.9375 37.140625 L 41.9375 39.457031 L 41.164062 39.457031 Z M 41.164062 37.140625 " fill-opacity="1" fill-rule="nonzero"/><path fill="#000000" d="M 41.164062 41.773438 L 41.9375 41.773438 L 41.9375 44.089844 L 41.164062 44.089844 Z M 41.164062 41.773438 " fill-opacity="1" fill-rule="nonzero"/><path fill="#000000" d="M 41.164062 55.675781 L 41.9375 55.675781 L 41.9375 57.992188 L 41.164062 57.992188 Z M 41.164062 55.675781 " fill-opacity="1" fill-rule="nonzero"/><path fill="#000000" d="M 41.164062 51.042969 L 41.9375 51.042969 L 41.9375 53.359375 L 41.164062 53.359375 Z M 41.164062 51.042969 " fill-opacity="1" fill-rule="nonzero"/><path fill="#000000" d="M 41.164062 18.605469 L 41.9375 18.605469 L 41.9375 20.921875 L 41.164062 20.921875 Z M 41.164062 18.605469 " fill-opacity="1" fill-rule="nonzero"/><path fill="#000000" d="M 41.164062 27.875 L 41.9375 27.875 L 41.9375 30.191406 L 41.164062 30.191406 Z M 41.164062 27.875 " fill-opacity="1" fill-rule="nonzero"/><path fill="#000000" d="M 41.164062 9.339844 L 41.9375 9.339844 L 41.9375 11.65625 L 41.164062 11.65625 Z M 41.164062 9.339844 " fill-opacity="1" fill-rule="nonzero"/><path fill="#000000" d="M 41.164062 4.703125 L 41.9375 4.703125 L 41.9375 7.019531 L 41.164062 7.019531 Z M 41.164062 4.703125 " fill-opacity="1" fill-rule="nonzero"/><path fill="#000000" d="M 41.164062 13.972656 L 41.9375 13.972656 L 41.9375 16.289062 L 41.164062 16.289062 Z M 41.164062 13.972656 " fill-opacity="1" fill-rule="nonzero"/><path fill="#000000" d="M 41.164062 23.238281 L 41.9375 23.238281 L 41.9375 25.554688 L 41.164062 25.554688 Z M 41.164062 23.238281 " fill-opacity="1" fill-rule="nonzero"/><g clip-path="url(#b2ca4abbef)"><path fill="#000000" d="M 41.164062 0.0703125 L 41.9375 0.0703125 L 41.9375 2.386719 L 41.164062 2.386719 Z M 41.164062 0.0703125 " fill-opacity="1" fill-rule="nonzero"/></g></svg>