<svg xmlns="http://www.w3.org/2000/svg" xmlns:xlink="http://www.w3.org/1999/xlink" width="400" zoomAndPan="magnify" viewBox="0 0 300 299.999988" height="400" preserveAspectRatio="xMidYMid meet" version="1.0"><path fill="#bc1727" d="M 300 286.957031 L 285.773438 299.867188 L 285.773438 261.46875 Z M 0 14.347656 L 38.398438 14.347656 L 12.917969 0.121094 Z M 0 14.347656 " fill-opacity="1" fill-rule="nonzero"/><path fill="#e5212b" d="M 300 146.464844 L 300 286.957031 L 13.164062 0.121094 L 153.652344 0.121094 Z M 300 146.464844 " fill-opacity="1" fill-rule="nonzero"/><path fill="#ffffff" d="M 121.234375 13.800781 C 125.484375 18.046875 125.128906 22.800781 120.679688 27.222656 L 119.808594 28.097656 L 115.675781 23.96875 L 116.824219 22.816406 C 118.8125 20.832031 118.777344 19.277344 117.382812 17.890625 C 115.992188 16.507812 114.445312 16.457031 112.457031 18.445312 C 106.738281 24.167969 114.203125 33.78125 106.261719 41.722656 C 101.8125 46.171875 97.042969 46.488281 92.753906 42.199219 C 88.464844 37.90625 88.800781 33.121094 93.234375 28.691406 L 94.9375 26.988281 L 99.070312 31.117188 L 97.085938 33.121094 C 95.101562 35.105469 95.257812 36.71875 96.648438 38.089844 C 98.039062 39.457031 99.648438 39.636719 101.617188 37.648438 C 107.335938 31.933594 99.863281 22.320312 107.808594 14.371094 C 112.261719 9.90625 117 9.546875 121.234375 13.800781 Z M 135.972656 42.910156 L 132.371094 46.511719 C 127.921875 50.957031 123.371094 51.238281 118.984375 46.867188 L 116.914062 44.800781 L 106.457031 55.265625 L 102.089844 50.898438 L 129.894531 23.09375 L 136.332031 29.519531 C 140.699219 33.898438 140.398438 38.464844 135.972656 42.910156 Z M 130.289062 31.433594 L 120.882812 40.847656 L 122.945312 42.910156 C 124.332031 44.304688 125.722656 44.425781 127.710938 42.4375 L 131.910156 38.238281 C 133.894531 36.253906 133.777344 34.859375 132.390625 33.46875 Z M 137.488281 54.15625 L 143.488281 60.15625 L 139.519531 64.128906 L 133.519531 58.128906 L 125.398438 66.269531 L 132.949219 73.816406 L 129 77.789062 L 117.085938 65.875 L 144.886719 38.070312 L 156.804688 49.984375 L 152.832031 53.957031 L 145.265625 46.410156 Z M 154.691406 82.792969 L 151.027344 86.519531 C 146.578125 90.964844 141.808594 91.285156 137.519531 86.992188 C 133.230469 82.703125 133.546875 77.941406 138 73.488281 L 152.460938 59.035156 C 156.90625 54.582031 161.671875 54.234375 165.960938 58.554688 C 170.25 62.875 169.933594 67.613281 165.484375 72.058594 L 162.785156 74.761719 L 158.652344 70.632812 L 161.652344 67.632812 C 163.636719 65.644531 163.519531 64.03125 162.125 62.628906 C 160.734375 61.222656 159.125 61.117188 157.121094 63.109375 L 142.121094 78.109375 C 140.136719 80.09375 140.320312 81.707031 141.683594 83.070312 C 143.046875 84.433594 144.683594 84.625 146.644531 82.636719 L 150.617188 78.664062 Z M 174.792969 68.015625 L 179.160156 72.390625 L 151.355469 100.195312 L 147 95.824219 Z M 168.671875 117.511719 L 164.261719 113.101562 L 168.550781 107.304688 L 163.199219 101.941406 L 157.398438 106.230469 L 153.382812 102.214844 L 185.640625 78.863281 L 192.035156 85.253906 Z M 167.519531 98.722656 L 171.71875 102.925781 L 183.679688 86.761719 Z M 198.503906 91.734375 L 202.871094 96.101562 L 179.039062 119.933594 L 186.238281 127.132812 L 182.269531 131.105469 L 170.730469 119.519531 Z M 211.105469 117.671875 C 215.550781 113.21875 220.433594 113.023438 224.722656 117.3125 C 229.015625 121.601562 228.839844 126.484375 224.398438 130.921875 L 209.941406 145.375 C 205.488281 149.824219 200.605469 150.023438 196.3125 145.734375 C 192.023438 141.445312 192.222656 136.558594 196.675781 132.109375 Z M 200.761719 136.777344 C 198.773438 138.761719 198.894531 140.375 200.28125 141.78125 C 201.664062 143.183594 203.28125 143.292969 205.285156 141.304688 L 220.285156 126.304688 C 222.269531 124.320312 222.148438 122.707031 220.757812 121.300781 C 219.367188 119.898438 217.757812 119.789062 215.753906 121.777344 Z M 225.898438 143.808594 L 231.539062 149.449219 L 227.566406 153.421875 L 221.929688 147.78125 L 210.449219 159.257812 L 206.082031 154.921875 L 233.886719 127.117188 L 245.441406 138.671875 L 241.46875 142.644531 L 234.269531 135.445312 Z M 239.566406 157.46875 L 245.207031 163.109375 L 241.234375 167.082031 L 235.597656 161.441406 L 224.113281 172.921875 L 219.742188 168.550781 L 247.546875 140.746094 L 259.109375 152.304688 L 255.136719 156.277344 L 247.9375 149.074219 Z M 253.867188 170.519531 L 259.867188 176.519531 L 255.886719 180.492188 L 249.886719 174.492188 L 241.746094 182.632812 L 249.292969 190.175781 L 245.320312 194.148438 L 233.398438 182.214844 L 261.203125 154.410156 L 273.132812 166.320312 L 269.160156 170.292969 L 261.601562 162.757812 Z M 257.160156 205.992188 C 257.640625 205.039062 257.914062 204.445312 260.160156 202.183594 L 264.535156 197.8125 C 267.113281 195.226562 267.191406 193.402344 265.207031 191.417969 L 263.699219 189.90625 L 252.378906 201.226562 L 248.011719 196.859375 L 275.8125 169.054688 L 282.414062 175.65625 C 286.945312 180.1875 286.78125 184.234375 282.492188 188.527344 L 280.308594 190.714844 C 277.445312 193.570312 274.667969 194.527344 271.804688 193.492188 C 273.078125 196.589844 271.6875 199.410156 268.804688 202.3125 L 264.515625 206.605469 C 263.164062 207.953125 262.210938 209.003906 261.617188 210.457031 Z M 276.226562 177.394531 L 267.691406 185.933594 L 269.398438 187.621094 C 271.03125 189.246094 272.742188 189.527344 274.960938 187.300781 L 277.703125 184.558594 C 279.691406 182.574219 279.886719 181.027344 278.339844 179.476562 Z M 276.226562 177.394531 " fill-opacity="1" fill-rule="nonzero"/></svg>